<svg xmlns="http://www.w3.org/2000/svg" viewBox="0 0 250 67"><path fill="white" d="M14.558 44.137v9.03h2.886l5.34-9.03h-8.226ZM45.31 24.531h.043a4.518 4.518 0 0 0 4.523-4.515 4.518 4.518 0 0 0-4.523-4.515h-1.163l-5.34 9.073 6.46-.043ZM14.558 15.5v10.277L29.848 15.5h-15.29Zm30.796 28.636h-1.507l-13.439 9.03h14.903a4.518 4.518 0 0 0 4.523-4.515c.043-2.494-1.982-4.515-4.48-4.515Zm14.602-10.792-11.328 7.61c3.015 1.29 5.125 4.257 5.125 7.74a8.375 8.375 0 0 1-8.399 8.384H24.723L10.68 66.54a.613.613 0 0 1-.258.086.478.478 0 0 1-.474-.473c0-.086.043-.172.086-.258l5.169-8.772h-4.006a.478.478 0 0 1-.474-.473V40.783c0-.258.216-.472.474-.472h17.53c.259 0 .474.215.474.472a.797.797 0 0 1-.086.301l-8.184 13.888L48.671 36.27H.559a.478.478 0 0 1-.215-.903l10.38-7.008V12.105c0-.258.216-.473.474-.473h24.379l10.639-7.18L51.9.624c.086-.043.172-.086.259-.086.258 0 .474.215.474.473a.61.61 0 0 1-.087.258l-6.116 10.405c4.135.516 7.322 4.041 7.322 8.298a8.375 8.375 0 0 1-8.399 8.385H32.993a.478.478 0 0 1-.474-.474c0-.085.043-.172.043-.215l9.131-15.478-30.021 20.208H59.783c.259 0 .474.215.474.473a.76.76 0 0 1-.301.473ZM93.81 25.09l-3.403 1.849c-.516-1.118-1.378-3.483-4.22-3.397-1.551.043-3.016 1.59-3.016 3.74 0 2.194.991 3.741 4.05 5.59 4.177 2.537 6.245 5.246 6.245 9.718 0 5.073-2.93 8.599-7.667 8.599-4.824 0-6.978-3.182-8.313-7.052l3.747-1.849c.862 2.064 1.68 4.515 4.092 4.558 1.981.043 3.532-1.376 3.532-3.784 0-2.15-.861-3.74-4.35-5.718-3.662-2.15-5.944-5.074-5.944-9.545 0-4.859 3.402-8.557 7.494-8.557 5.513-.043 7.15 4.515 7.753 5.848ZM100.013 19.672h6.073c5.556 0 8.959 3.87 8.959 10.19 0 6.407-3.36 10.32-8.873 10.32h-1.464v10.405H99.97V19.672h.043Zm4.695 16.038h1.076c2.714 0 4.308-2.15 4.308-5.89 0-3.612-1.594-5.72-4.351-5.72h-1.033v11.61ZM130.637 43.664h-6.762l-1.422 6.923h-4.522l6.805-30.915h5.298l6.719 30.915h-4.738l-1.378-6.923Zm-5.944-4.256h5.126l-2.499-12.34h-.129l-2.498 12.34ZM142.525 19.672h5.728c5.686 0 9.132 3.698 9.132 9.631 0 3.698-1.163 6.493-3.317 8.256l4.652 12.985h-5.083l-3.747-11.222c-.603.086-1.163.129-1.766.129h-.818v11.093h-4.738V19.672h-.043Zm4.738 15.436h.732c2.843 0 4.48-2.02 4.48-5.676 0-3.44-1.637-5.288-4.48-5.288h-.732v10.964ZM172.159 38.075l-2.068 3.87v8.642h-4.737V19.672h4.737V34.55l6.074-14.877h5.211l-6.116 13.501 6.762 17.37h-5.384l-4.479-12.468ZM188.095 19.672h7.021c4.781 0 8.011 3.182 8.011 8.04 0 3.053-1.421 5.676-3.618 6.837 2.498 1.032 4.135 3.784 4.135 7.18 0 5.332-3.446 8.9-8.528 8.9h-6.978V19.673h-.043Zm4.609 13.286h1.981c2.154 0 3.489-1.849 3.489-4.772 0-2.58-1.378-4.343-3.446-4.343h-2.024v9.115Zm2.11 13.458c2.369 0 3.92-1.892 3.92-4.773 0-2.751-1.551-4.6-3.963-4.6h-2.024v9.373h2.067ZM218.074 51.103c-5.944 0-9.304-5.676-9.304-15.995 0-10.276 3.36-15.952 9.304-15.952 5.944 0 9.303 5.719 9.303 15.995s-3.359 15.952-9.303 15.952Zm0-4.687c2.713 0 4.307-3.998 4.307-11.308 0-7.266-1.594-11.265-4.307-11.265-2.757 0-4.308 3.999-4.308 11.265 0 7.31 1.551 11.308 4.308 11.308ZM237.284 34.936l-6.074-15.307h5.341l3.877 11.05 3.575-11.05h4.953l-5.944 15.651 6.073 15.307h-5.297l-3.92-11.093-3.747 11.093h-4.911l6.074-15.651Z"/></svg>
