<svg xmlns="http://www.w3.org/2000/svg" class="modern-logo-svg" preserveAspectRatio="xMinYMax meet" viewBox="0 0 607.38 142.11">
  <path fill="white" d="M603.27 82.63c-4.72-.06-12.38-.13-17.11-.13-4.2 0-8.47.07-12.67.13v-1.7c3.09 0 4.86-.4 4.86-2.89v-23c0-2.5-1.77-2.89-4.86-2.89v-1.68c3 .07 5.91.13 8.86.13 5.39 0 13.83-.06 19.15-.13l.4 7h-1.38c-.79-4.46-2.8-4.86-9.56-4.86h-7V65h7.55c3.28 0 5.62-.07 5.62-4.6h1.71c-.07 1.71-.14 3.48-.14 5.25s.07 3.61.14 5.45h-1.71c0-3.61-1.75-4-5.62-4H584v9.58c0 2.47.81 3.58 5 3.82h6.21c5.55-.1 6.1-1.1 8.51-5.17h1.64Zm-90.63 0c-4.72-.06-12.38-.13-17.11-.13-4.2 0-8.47.07-12.67.13v-1.7c3.09 0 4.86-.4 4.86-2.89v-23c0-2.5-1.77-2.89-4.86-2.89v-1.68c3 .07 5.91.13 8.86.13 5.39 0 13.83-.06 19.15-.13l.4 7h-1.38c-.79-4.46-2.8-4.86-9.56-4.86h-7V65h7.55c3.28 0 5.62-.07 5.62-4.6h1.7c-.06 1.71-.13 3.48-.13 5.25s.07 3.61.13 5.45h-1.7c0-3.61-1.75-4-5.62-4h-7.55v9.58c0 2.47.81 3.58 4.95 3.82h6.21c5.55-.1 6.1-1.1 8.51-5.17h1.64Zm-174.86-1.37c-4.47 1.37-6.11 2.16-10.83 2.16-11.62 0-18.32-7.22-18.32-16.87 0-10.37 8-16.87 18-16.87 5.38 0 6.5 1.58 11.82 1.78l.39 7.61h-1.51c0-1.51-2-7.29-9.78-7.29-5.71 0-12.87 3.42-12.87 13.85 0 7.49 4.86 15.69 12.61 15.69 4.46 0 7.94-1.51 10-7.74l1.71.19Zm32.85-31.58c10.64 0 17.59 7.22 17.59 16.68 0 8.13-6.76 17.06-18.05 17.06-10.83 0-18-7-18-17 .02-10.3 8.83-16.74 18.46-16.74Zm.27 31.64c8.27 0 10.89-7.22 10.89-14.31 0-9.19-5.18-15.23-12.14-15.23-7.88 0-11 6.89-11 14-.03 8.78 5.35 15.54 12.25 15.54Zm35.35-26.25c0-2.5-1.78-2.89-4.86-2.89v-1.71c2.49.07 5.05.13 7.55.13s5.38-.06 7.81-.13v1.71c-2.89 0-4.86.19-4.86 2.89v21.85c0 2.76.85 3.61 6 3.61 5.84 0 7.29-.92 9.71-6.23h1.65l-2 8.33c-1.71-.06-10.24-.13-12.15-.13-4.59 0-9.19.07-13.78.13v-1.7c3.08 0 4.86-.4 4.86-2.89Zm41.01 0c0-2.5-1.77-2.89-4.86-2.89v-1.71c2.5.07 5.06.13 7.55.13s5.38-.06 7.81-.13v1.71c-2.88 0-4.85.19-4.85 2.89v21.85c0 2.76.85 3.61 6 3.61 5.84 0 7.28-.92 9.71-6.23h1.64l-2 8.33c-1.7-.06-10.24-.13-12.14-.13-4.59 0-9.19.07-13.79.13v-1.7c3.09 0 4.86-.4 4.86-2.89Zm110.03 4.13h-1.45c-1.64-3.61-3.28-7.42-10.1-7.42-7.16 0-13.2 4.34-13.2 14.84 0 6.1 3.41 14.7 13.85 14.7a11.44 11.44 0 0 0 4.66-1c0-.59.13-4.2.13-5 0-3.68-.52-4.66-5-4.66v-1.81c2.49.07 5.31.2 7.81.2 2 0 4.33-.13 6.3-.2v1.71c-3.08 0-3.81.39-3.81 2.62v4.2c0 1.18 0 2.17 1.19 2.56v1.25a50.78 50.78 0 0 1-13.53 2.23c-10.56 0-18-7.42-18-16.61 0-10.5 8.14-17.13 18.44-17.13a48.29 48.29 0 0 1 6.17.59c.86.13 5.12.92 6 1.12ZM284.33 0h2.97v132.2h-2.97zM448.9 132c-4.73-.07-12.39-.13-17.11-.13-4.2 0-8.47.06-12.67.13v-1.71c3.09 0 4.86-.39 4.86-2.89v-23c0-2.5-1.77-2.89-4.86-2.89v-1.7c2.95.07 5.91.13 8.86.13 5.38 0 13.83-.06 19.15-.13l.39 7h-1.38c-.78-4.46-2.8-4.86-9.56-4.86h-7v12.41h7.55c3.29 0 5.63-.07 5.63-4.59h1.7c-.06 1.7-.13 3.47-.13 5.25s.07 3.61.13 5.45h-1.7c0-3.62-1.75-4-5.63-4h-7.55V126c0 2.47.82 3.59 5 3.83h6.21c5.55-.11 6.1-1.11 8.5-5.18h1.65Zm-73.65-27.57c0-2.49-1.77-2.88-4.85-2.88v-1.71c2.42.07 5.11.13 7.86.13 3.34 0 6.68-.13 10-.13 13.17 0 18.8 8.19 18.8 15.73C407 128 397.46 132 387.89 132c-2.88 0-6.16-.13-8.71-.13-2.95 0-5.84.06-8.78.13v-1.7c3.08 0 4.85-.4 4.85-2.89Zm5.63 21.29c0 3.8 2.1 4.13 5.24 4.13 6.29 0 14.48-2 14.48-13.5 0-8-3.73-14.41-12.51-14.41-1.9 0-5.18.13-7.21.19Zm83.24-1.72h1.51c1.31 4.59 3.34 7 8.12 7 5.05 0 6.22-3.41 6.22-5.44 0-2.68-1.5-4.39-5.89-6.68-7.21-3.74-9.11-6.23-9.11-11.34 0-4.45 3.87-8.52 9.57-8.52 2.49 0 5.56.59 7.73.66l.59 6.42h-1.38c-.72-2.62-2.16-5.37-6.48-5.37-3.41 0-5.71 2.23-5.71 5.24s1 4.39 7.28 7.47c6.94 3.41 8.25 6.16 8.25 10.29 0 5.24-4.85 9-11.59 9a18.46 18.46 0 0 1-8.13-1.73Zm39.5-19.57c0-2.49-1.77-2.88-4.85-2.88v-1.71c2.49.07 5.05.13 7.54.13s5.37-.06 7.79-.13v1.71c-3.08 0-4.85.39-4.85 2.88v22.93c0 2.49 1.77 2.89 4.85 2.89V132c-2.42-.07-5.17-.13-7.79-.13s-5.05.06-7.54.13v-1.7c3.08 0 4.85-.4 4.85-2.89Zm53.67 4.13h-1.44c-1.64-3.61-3.27-7.41-10.09-7.41-7.14 0-13.17 4.33-13.17 14.81 0 6.09 3.41 14.68 13.82 14.68a11.44 11.44 0 0 0 4.66-1c0-.59.13-4.19.13-5 0-3.66-.53-4.65-5.05-4.65v-1.7c2.49.06 5.31.2 7.8.2 2 0 4.32-.14 6.29-.2v1.7c-3.08 0-3.8.4-3.8 2.62v4.2c0 1.18 0 2.16 1.18 2.55v1.25a50.94 50.94 0 0 1-13.5 2.23c-10.55 0-18-7.41-18-16.58 0-10.49 8.12-17.11 18.41-17.11a48.33 48.33 0 0 1 6.16.59c.85.14 5.11.92 6 1.12Zm19.37-3.93c0-2.95-3.41-3.08-4.72-3.08v-1.71c1.57.07 2.56.13 4.06.13s3-.06 4.39-.13l20.37 23.46v-17.17c0-4.52-1.63-4.58-5.11-4.58v-1.71c2.1.07 4.26.13 6.35.13 1.9 0 3.48-.06 5.38-.13v1.71c-3.08 0-4 .13-4 3.4v27.79h-1.57l-22.53-25.82v17.49c0 4.72.65 5.84 5.57 5.84V132c-2.17-.07-4.66-.13-6.88-.13s-3.94.06-6.17.13v-1.7c5.38 0 4.86-2.69 4.86-7.41Zm-253.97 6.3c5.28 0 8.74 4 8.74 9.24 0 6.42-5.46 12.25-12 12.25-5.46 0-9-3.65-9-9.15a12.54 12.54 0 0 1 12.26-12.34Zm-3.27 20.3c5.87 0 8.37-8 8.37-12.7 0-3.23-1.23-6.41-5.14-6.41-6.1 0-8.51 7.69-8.51 12.7 0 3.41 1.27 6.41 5.28 6.41Zm31.12-19.61-.55 1.86h-5l-7.6 27.81-2.78.82-.13-.28 7-28.35h-4.1l.5-1.86h4c1.45-5.05 2.64-8.83 6.82-12.47a8.15 8.15 0 0 1 4.93-2.15c.91 0 1.87.37 1.87 1.46 0 .64-.46 2.19-1.28 2.19s-1.82-.92-2.86-.92c-2.78 0-3.6 3.1-4.24 5.69l-1.59 6.24ZM29.68 50h6.4v33.71h-7.22V61.25L18 75.05 7.22 61.34v22.37H0V50h6.49L18 64.71Zm38.82-.68c10.34 0 18.28 7.93 18.28 17.55S78.84 84.43 68.5 84.43 50.22 76.5 50.22 66.87s7.94-17.55 18.28-17.55Zm0 28.62a11.07 11.07 0 1 0-10.82-11.07A10.83 10.83 0 0 0 68.5 77.94ZM113.31 50c9.86 0 17.32 7.45 17.32 16.83s-7.46 16.84-17.32 16.84H100.8V50ZM108 56.53v20.69h5.29a10.22 10.22 0 0 0 10.1-10.35 10.06 10.06 0 0 0-10.1-10.34Zm65.23 20.69v6.49h-28.46V50H173v6.49h-21v6.74h13.71v6.49H152v7.46ZM188.67 50h15.87c6.74 0 11.55 4.9 11.55 11.06a10.89 10.89 0 0 1-6 9.86l7.22 12.75h-7.7l-6.51-11.74h-7.22v11.78h-7.21Zm15.63 6.49h-8.42v8.9h8.42a4.37 4.37 0 0 0 4.57-4.33 4.42 4.42 0 0 0-4.57-4.53ZM263 50v33.71h-6.25l-16.6-21.4v21.4h-7.21V50h6.25l16.6 21.41V50ZM173.23 0v6.49H162.6v27.19h-7.21V6.49h-10.62V0Zm44.3 33.68h-7.22v-14h-14.43v14h-7.21V0h7.21v13.19h14.43V0h7.22Zm43.8-6.5v6.5h-28.4V0h28.47v6.49h-21.26v6.74h13.71v6.5h-13.71v7.45Z"/>
</svg>